<svg xmlns="http://www.w3.org/2000/svg" height="1024" preserveAspectRatio="xMidYMid meet" version="1.1" viewBox="0 0 2048 2048" width="1024">
<path d="M 0 0 L 2048 0 L 2048 2048 L 0 2048 L 0 0 z" fill="transparent" transform="translate(0,0)"></path>
<path d="M 177.228 687.451 C 200.44 687.447 223.651 687.6 246.861 687.912 C 284.036 737.364 319.775 792.786 355.313 843.665 C 381.928 881.767 409.276 919.14 434.747 958.031 C 446.037 942.273 458.129 928.1 469.236 912.88 C 491.294 882.655 513.134 853.827 536.803 824.785 C 556.9 853.581 577.957 882.082 599.36 909.906 C 611.858 926.153 623.732 943.685 637.301 959.019 C 647.125 948.365 661.626 926.811 670.612 914.917 C 693.246 884.964 715.195 853.806 738.567 824.436 C 755.299 845.744 772.73 866.126 790.137 886.849 C 800.331 898.985 810.236 913.65 821.13 924.763 C 815.931 942.806 817.908 972.362 818.218 992.113 C 814.541 988.677 811.211 984.305 807.995 980.377 C 785.634 949.772 762.119 919.388 739.49 888.706 C 725.793 904.846 710.549 926.324 697.661 943.41 C 676.531 970.917 655.545 998.533 634.704 1026.26 L 537.454 888.427 C 522.063 906.804 505.602 929.65 491.091 949.024 L 434.419 1023.88 C 424.265 1010.87 413.689 994.675 404.112 980.985 C 386.628 956.407 369.306 931.713 352.148 906.906 C 310.933 848.211 267.043 787.847 227.562 728.264 C 208.124 728.258 159.917 735.272 156.757 711 C 156 705.092 157.718 699.133 161.505 694.536 C 166.089 688.882 170.467 688.054 177.228 687.451 z" fill="rgb(96, 165, 250)" transform="translate(0,0)"></path>
<path d="M 1273.46 824.388 C 1306.51 875.089 1344.7 925.518 1376.18 976.944 C 1422.83 977.006 1471.06 975.424 1517.98 975.008 L 1518.02 1016.93 L 1360.45 1016.9 C 1352.17 1003.18 1339.5 985.834 1330.19 972.494 L 1271.24 889.052 C 1238.45 934.357 1201.9 978.375 1169.07 1022.92 C 1145.87 992.42 1115.64 957.454 1091.04 927.14 C 1090.94 905.902 1090.98 884.664 1091.17 863.427 C 1098.09 870.505 1110.34 886.395 1117.34 894.808 C 1135.12 916.229 1153.01 937.55 1171.03 958.769 C 1181.83 946.64 1198.17 924.046 1208.14 910.774 C 1229.76 881.861 1251.53 853.065 1273.46 824.388 z" fill="rgb(96, 165, 250)" transform="translate(0,0)"></path>
<path d="M 1517.98 975.008 L 1771.09 974.519 L 1838.75 974.643 C 1851.83 974.571 1865.69 974.228 1878.78 974.791 C 1882.62 974.956 1886.33 977.251 1889.16 979.834 C 1893.65 983.918 1896.14 989.749 1895.98 995.812 C 1895.33 1022.94 1862.93 1017.03 1844.49 1017.01 L 1771.65 1016.95 C 1687.7 1016.87 1601.84 1016.02 1518.02 1016.93 L 1517.98 975.008 z" fill="rgb(58,207,145)" transform="translate(0,0)"></path>
<path d="M 1128.55 737.032 C 1128.98 737.014 1130.65 737.352 1131.15 737.441 C 1130.56 738.734 1113.9 754.551 1111.25 757.479 C 1072.23 800.726 1077.84 851.896 1078.12 905.552 C 1078.31 942.089 1076.75 978.857 1079.82 1015.31 C 1083.34 1057.88 1099.9 1082.81 1132.44 1109.46 C 1115.24 1105.36 1106.16 1102.04 1090.84 1093.36 C 1082.78 1088.21 1075.35 1082.12 1068.72 1075.22 C 1036.15 1040.71 1036.99 1000.93 1038.35 956.789 C 1047.4 948.643 1061.25 940.617 1060.05 926.076 C 1059.04 913.885 1046.88 904.824 1038.09 897.693 C 1037.81 863.929 1034.9 826.304 1051.51 796.316 C 1068.99 764.74 1094.71 747.203 1128.55 737.032 z" fill="rgb(96, 165, 250)" transform="translate(0,0)"></path>
<path d="M 971.472 868.773 C 978.608 870.423 998.813 888.257 1005.35 893.715 C 1014.87 901.672 1041.2 917.368 1044.75 927.327 C 1044.46 928.481 1044.2 929.465 1043.61 930.506 C 1039.35 937.932 979.716 986.819 972.726 987.699 C 970.579 987.969 967.484 986.704 965.695 985.601 C 962.826 983.833 961.085 981.574 960.44 978.197 C 958.744 969.311 969.717 955.498 974.326 948.235 C 958.794 949.612 941.926 950.475 926.246 951.602 C 895.154 954.373 853.804 952.94 827.454 965.277 C 826.967 925.191 835.141 913.714 877.212 911.897 C 909.636 910.496 942.513 907.964 975.02 906.904 C 964.54 893.645 950.098 879.414 971.472 868.773 z" fill="rgb(58,207,145)" transform="translate(0,0)"></path>
<path d="M 616.555 1203.84 C 649.118 1198.26 680.031 1220.16 685.568 1252.73 C 691.104 1285.31 669.164 1316.19 636.586 1321.68 C 604.069 1327.16 573.257 1305.27 567.731 1272.77 C 562.204 1240.26 584.053 1209.41 616.555 1203.84 z" fill="rgb(96, 165, 250)" transform="translate(0,0)"></path>
<path d="M 619.502 1215.58 C 645.592 1211.75 669.808 1229.91 673.428 1256.03 C 677.049 1282.15 658.686 1306.22 632.536 1309.62 C 606.69 1312.99 582.964 1294.88 579.385 1269.07 C 575.807 1243.25 593.714 1219.37 619.502 1215.58 z" fill="rgb(255,255,255)" transform="translate(0,0)"></path>
<path d="M 1423.9 1204.29 C 1451.87 1204.14 1493.6 1199.56 1515 1220.77 C 1538.4 1243.94 1537.48 1281.35 1514.72 1304.95 C 1490.45 1326.67 1455.79 1320.78 1423.77 1320.86 L 1423.9 1204.29 z" fill="rgb(96, 165, 250)" transform="translate(0,0)"></path>
<path d="M 1436.13 1215.87 C 1442.58 1215.74 1473.12 1215.47 1478.49 1216.35 L 1480.51 1216.71 C 1519.41 1223.16 1530.53 1268.73 1505.98 1296.08 C 1485.41 1313.86 1461.58 1309.53 1435.96 1309.27 C 1435.86 1278.13 1435.92 1247 1436.13 1215.87 z" fill="rgb(255,255,255)" transform="translate(0,0)"></path>
<path d="M 1154.48 1204.81 C 1173.57 1204.63 1193.67 1203.85 1212.61 1205.11 C 1231.8 1206.37 1247.5 1219.89 1244.34 1240.15 C 1242.83 1249.84 1236.26 1254.97 1228.94 1260.48 C 1248.97 1268.65 1254.12 1283.27 1247.55 1303.39 C 1232.17 1327.64 1181.15 1320.94 1154.57 1320.74 L 1154.48 1204.81 z" fill="rgb(96, 165, 250)" transform="translate(0,0)"></path>
<path d="M 1167.64 1267.02 C 1185.82 1266.86 1217.9 1263.41 1232.42 1274.18 C 1240.63 1280.28 1238.44 1295.18 1231.97 1302.79 C 1215.55 1312.35 1187.83 1309.34 1167.79 1309.1 C 1167.64 1295.07 1167.59 1281.05 1167.64 1267.02 z" fill="rgb(255,255,255)" transform="translate(0,0)"></path>
<path d="M 1169.33 1215.46 C 1183.58 1215.33 1197.78 1215.26 1211.99 1216.36 C 1232.1 1217.93 1238.86 1240.28 1222.34 1252.15 C 1207.73 1258.43 1184.15 1256.8 1167.49 1256.62 C 1167.34 1245.51 1167.22 1228.39 1167.5 1216.65 C 1167.51 1216.15 1169.05 1215.59 1169.33 1215.46 z" fill="rgb(255,255,255)" transform="translate(0,0)"></path>
<path d="M 918.417 741.337 C 918.308 743.39 908.092 751.912 905.667 754.286 C 860.971 798.054 862.947 841.51 862.511 898.497 C 838.167 902.916 841.772 904.242 822.78 915.974 C 822.679 915.682 822.577 915.39 822.476 915.098 C 818.476 881.233 821.992 828.56 838.142 799.563 C 857.079 765.563 884.434 751.413 918.417 741.337 z" fill="rgb(96, 165, 250)" transform="translate(0,0)"></path>
<path d="M 519.475 1204.5 L 530.745 1204.38 L 530.784 1320.92 C 526.941 1320.82 522.094 1320.83 518.351 1320.56 C 518.149 1296.2 518.436 1269.79 517.619 1245.6 C 517.771 1240.81 517.921 1237.18 517.532 1232.34 L 516.647 1232.08 L 514.582 1235.93 C 507.257 1248.3 480.791 1295.25 472.63 1305.28 C 465.102 1307.16 428.854 1241.02 423.187 1231.52 L 422.977 1321.04 L 410.888 1320.98 L 410.773 1204.49 L 421.542 1204.76 C 431.292 1223.03 459.585 1273.24 471.104 1288.34 C 488.299 1259.7 503.019 1233.02 519.475 1204.5 z" fill="rgb(96, 165, 250)" transform="translate(0,0)"></path>
<path d="M 853.991 971.329 C 857.144 970.971 858.76 970.437 861.58 971.84 C 861.981 1030.89 867.56 1069.06 916.022 1109.19 C 907.175 1106.49 900.278 1104.33 891.631 1100.84 C 841.646 1077.57 822.182 1037.81 822.321 984.128 C 832.229 975.363 841.57 973.237 853.991 971.329 z" fill="rgb(96, 165, 250)" transform="translate(0,0)"></path>
<path d="M 722.101 1204.32 L 731.88 1205.06 C 739.384 1215.56 750.776 1228.98 759.137 1239.41 C 774.554 1258.6 789.834 1277.9 804.975 1297.31 L 805.065 1204.64 L 818.064 1204.7 L 818.155 1282.25 C 818.172 1292.58 818.742 1311.26 817.683 1320.78 C 814.721 1320.79 811.758 1320.78 808.795 1320.75 C 803.441 1318.44 740.311 1236 734.579 1227.38 L 734.38 1320.96 L 721.566 1320.95 L 721.611 1243.75 C 721.605 1233.71 721.035 1213.7 722.101 1204.32 z" fill="rgb(96, 165, 250)" transform="translate(0,0)"></path>
<path d="M 1045.99 1204.57 L 1059.11 1204.61 L 1059.11 1281.44 C 1059.11 1292.3 1059.66 1310.74 1058.61 1320.84 L 1046.35 1320.69 L 1046.34 1267.11 L 976.202 1267.06 C 976.039 1284.99 975.969 1302.93 975.992 1320.87 L 962.908 1320.83 L 963 1204.85 L 976.143 1204.73 L 976.234 1256.39 C 998.402 1257.18 1023.62 1256.69 1046.03 1256.69 L 1045.99 1204.57 z" fill="rgb(96, 165, 250)" transform="translate(0,0)"></path>
<path d="M 1702.1 1204.66 C 1712.59 1204.62 1776.72 1203.28 1780.6 1206.24 C 1780.83 1210 1781.23 1211.69 1779.9 1215.24 C 1774.93 1216.08 1763.07 1215.75 1757.56 1215.76 L 1715.56 1215.98 C 1715.34 1229.48 1715.35 1242.97 1715.6 1256.47 C 1729.69 1256.98 1760.43 1255.45 1772.7 1257.47 C 1774.45 1260.3 1773.63 1261.74 1773.46 1265.8 C 1770.2 1268.76 1724.72 1267.17 1718.05 1267.14 L 1717.22 1267.39 C 1714.96 1270.85 1715.93 1303.18 1715.97 1309.86 C 1728.87 1309.93 1772.38 1308.63 1781.99 1310.1 L 1782.86 1311.64 C 1782.81 1315.02 1783.45 1318.46 1781.64 1320.47 C 1767.8 1322.19 1718.75 1320.87 1702.27 1320.77 C 1701.98 1282.07 1701.92 1243.36 1702.1 1204.66 z" fill="rgb(96, 165, 250)" transform="translate(0,0)"></path>
<path d="M 1609.46 1204.22 C 1632.14 1202.05 1644.13 1206.58 1660.97 1221.22 C 1658.77 1223.99 1656.15 1226.57 1653.68 1229.12 C 1627.59 1206.49 1585.7 1211.86 1573.89 1245.66 C 1569.24 1258.59 1570.11 1272.87 1576.3 1285.13 C 1581.74 1295.81 1591.26 1303.84 1602.69 1307.41 C 1618.68 1312.5 1633.26 1309.51 1647.63 1301.89 L 1647.86 1291.22 L 1647.93 1261.62 L 1659.87 1261.53 C 1659.82 1276.1 1660.01 1290.67 1660.46 1305.23 C 1640.91 1324.29 1608.63 1326.97 1585.57 1312.79 C 1572.3 1304.76 1562.93 1291.62 1559.67 1276.45 C 1551.84 1240.08 1573.07 1211.2 1609.46 1204.22 z" fill="rgb(96, 165, 250)" transform="translate(0,0)"></path>
<path d="M 1366.42 1204.12 L 1379.24 1204.43 C 1379.09 1231.25 1381.25 1264.47 1377.49 1290.5 C 1371 1324.37 1320.66 1330.85 1299.33 1309.25 C 1281.86 1291.54 1286.66 1251.95 1286.73 1228.05 L 1286.72 1204.87 L 1299.9 1204.76 C 1300.09 1225.34 1299.92 1246.43 1299.78 1267.17 C 1298.89 1291.42 1306.51 1310.12 1334.02 1309.47 C 1372.19 1308.56 1366.78 1273.93 1366.86 1246.71 C 1366.9 1232.44 1366.58 1218.2 1366.42 1204.12 z" fill="rgb(96, 165, 250)" transform="translate(0,0)"></path>
<path d="M 257.025 1204.26 C 278.955 1201.47 304.351 1210.4 304.409 1235.4 C 304.472 1262.6 267.648 1289.88 249.925 1309.03 C 269.852 1309.25 289.781 1309.3 309.71 1309.19 L 309.601 1321.1 L 263.328 1320.91 C 255.277 1320.98 239.418 1321.57 232.113 1320.3 C 220.743 1301.1 315.073 1254.86 287.873 1224.77 C 271.946 1207.15 250.145 1215.35 234.576 1227.85 L 226.396 1220.97 C 236.224 1210.63 243.267 1206.74 257.025 1204.26 z" fill="rgb(96, 165, 250)" transform="translate(0,0)"></path>
<path d="M 844.162 1204.26 L 903.95 1204.09 C 912.038 1204.07 928.346 1203.59 935.81 1204.7 C 937.376 1207.78 937.43 1211.99 936.396 1215.21 C 932.857 1216.36 903.199 1215.96 897.339 1215.96 L 897.239 1281.5 L 897.1 1320.97 L 884.789 1320.9 L 884.816 1215.97 L 844.112 1215.93 L 844.162 1204.26 z" fill="rgb(96, 165, 250)" transform="translate(0,0)"></path>
<path d="M 1815.38 1204.51 L 1864.17 1204.42 C 1871.46 1204.42 1885.48 1204.03 1892.09 1205.25 C 1893.27 1207.87 1892.86 1212.8 1892.82 1215.93 L 1852.73 1215.72 L 1852.79 1299.5 L 1852.82 1320.87 L 1840.64 1320.81 C 1840.4 1285.63 1840.35 1250.46 1840.5 1215.29 C 1830.88 1215.08 1807.96 1216.38 1800.2 1214.45 L 1799.24 1212.74 C 1799.3 1207.96 1798.55 1208.56 1800.79 1205.29 C 1804.55 1203.62 1810.99 1204.36 1815.38 1204.51 z" fill="rgb(96, 165, 250)" transform="translate(0,0)"></path>
<path d="M 157.151 1204.36 L 196.433 1204.58 C 195.587 1242.31 196.387 1282.92 196.453 1320.91 L 184.166 1320.82 C 183.718 1286.03 184.016 1250.58 183.959 1215.74 C 174.637 1215.4 165.314 1217.79 158.465 1214.15 C 156.347 1210.47 157.114 1209.05 157.151 1204.36 z" fill="rgb(96, 165, 250)" transform="translate(0,0)"></path>
<path d="M 331.552 1266.25 L 375.496 1266.01 L 375.837 1276.86 C 361.023 1276.8 346.209 1276.83 331.395 1276.94 C 331.256 1273.43 331.419 1269.77 331.552 1266.25 z" fill="rgb(96, 165, 250)" transform="translate(0,0)"></path>
<metadata><recraft-signature>{"signed_by": "recraft", "signature_b64": "klOIEXMxILJxDOUh1lr3LBxQtSSAcEkIA9yHYIaUklUhAIHIOKXuxL1J3uXhrT7ssocOOAC6Gp4qHPxGbYwHDA==", "signing_algo": "Ed25519", "generation_timestamp": 1776266709, "identifier": "8e4d1022-f115-437d-8343-9a5c6ea74545"}</recraft-signature></metadata></svg>
